<?xml version="1.0" standalone="no"?>
<!DOCTYPE svg PUBLIC "-//W3C//DTD SVG 20010904//EN"
 "http://www.w3.org/TR/2001/REC-SVG-20010904/DTD/svg10.dtd">
<svg version="1.0" xmlns="http://www.w3.org/2000/svg"
 width="700.000000pt" height="700.000000pt" viewBox="0 0 700.000000 700.000000"
 preserveAspectRatio="xMidYMid meet">
<metadata>
Created by potrace 1.14, written by Peter Selinger 2001-2017
</metadata>
<g transform="translate(0.000000,700.000000) scale(0.100000,-0.100000)"
fill="#000000" stroke="none">
<path d="M3028 6995 c-3 -3 -47 -7 -99 -10 -52 -3 -116 -7 -144 -10 -27 -3
-70 -7 -95 -9 -25 -2 -74 -10 -110 -16 -36 -7 -78 -13 -95 -15 -16 -2 -30 -4
-30 -5 0 -2 -11 -3 -25 -4 -14 -1 -29 -4 -35 -8 -5 -3 -29 -9 -52 -13 -85 -14
-116 -70 -82 -150 25 -60 15 -118 -37 -222 l-49 -98 -3 -3020 c-3 -3022 -2
-3105 29 -3105 5 0 9 -7 9 -15 0 -8 12 -22 28 -32 40 -25 86 -74 112 -121 23
-42 62 -65 108 -65 12 0 22 -3 22 -7 0 -5 15 -7 33 -5 17 1 37 -1 42 -5 13 -9
106 -21 162 -20 23 1 44 -3 47 -8 3 -5 31 -8 63 -7 32 1 63 -1 68 -5 6 -5 56
-7 113 -7 56 1 102 -1 102 -6 0 -4 179 -5 398 -3 555 6 575 7 592 13 8 4 42 7
75 9 33 1 78 5 100 8 137 20 194 27 223 28 17 1 32 5 32 10 0 4 3 7 8 6 16 -4
72 14 72 23 0 6 4 8 9 5 5 -4 21 9 35 26 15 18 31 38 36 45 6 7 10 15 10 18 0
4 27 33 60 66 33 32 58 59 54 59 -3 0 2 10 10 22 14 20 16 170 16 1410 0 763
-3 1389 -7 1391 -5 3 -8 730 -7 1616 0 886 -3 1611 -7 1611 -4 0 -6 18 -4 40
2 22 -1 40 -5 40 -5 0 -11 13 -15 30 -4 16 -11 32 -16 36 -12 7 -51 84 -43 84
4 0 1 7 -6 15 -6 8 -9 19 -5 25 3 5 1 10 -4 10 -7 0 -11 24 -11 60 0 33 4 60
9 60 5 0 8 8 6 18 -1 9 0 22 4 27 10 17 10 35 0 41 -5 3 -7 10 -3 15 9 15 -94
57 -153 63 -12 1 -25 5 -29 9 -4 4 -24 7 -44 7 -20 0 -39 3 -43 6 -6 6 -35 9
-167 18 -36 2 -65 5 -65 6 0 11 -1186 26 -1197 15z"/>
</g>
</svg>
